<svg width="28" height="27" viewBox="0 0 28 27" fill="none" xmlns="http://www.w3.org/2000/svg">
<rect x="0.5" width="27" height="27" rx="13.5" fill="#7C9BA5"/>
<path d="M14.0017 23C12.6877 23 11.4527 22.7507 10.2965 22.252C9.14033 21.7533 8.13467 21.0766 7.2795 20.2218C6.42433 19.3669 5.74725 18.3617 5.24825 17.206C4.74942 16.0503 4.5 14.8156 4.5 13.5017C4.5 12.1877 4.74933 10.9527 5.248 9.7965C5.74667 8.64033 6.42342 7.63467 7.27825 6.7795C8.13308 5.92433 9.13833 5.24725 10.294 4.74825C11.4497 4.24942 12.6844 4 13.9983 4C15.3123 4 16.5473 4.24933 17.7035 4.748C18.8597 5.24667 19.8653 5.92342 20.7205 6.77825C21.5757 7.63308 22.2528 8.63833 22.7518 9.794C23.2506 10.9497 23.5 12.1844 23.5 13.4983C23.5 14.8123 23.2507 16.0473 22.752 17.2035C22.2533 18.3597 21.5766 19.3653 20.7218 20.2205C19.8669 21.0757 18.8617 21.7528 17.706 22.2518C16.5503 22.7506 15.3156 23 14.0017 23ZM14 21.5C16.2333 21.5 18.125 20.725 19.675 19.175C21.225 17.625 22 15.7333 22 13.5C22 11.2667 21.225 9.375 19.675 7.825C18.125 6.275 16.2333 5.5 14 5.5C11.7667 5.5 9.875 6.275 8.325 7.825C6.775 9.375 6 11.2667 6 13.5C6 15.7333 6.775 17.625 8.325 19.175C9.875 20.725 11.7667 21.5 14 21.5ZM14.0022 19C12.4751 19 11.1763 18.4655 10.1058 17.3965C9.03525 16.3275 8.5 15.0294 8.5 13.5022C8.5 11.9751 9.0345 10.6762 10.1035 9.60575C11.1725 8.53525 12.4706 8 13.9978 8C15.5249 8 16.8238 8.5345 17.8943 9.6035C18.9648 10.6725 19.5 11.9706 19.5 13.4978C19.5 15.0249 18.9655 16.3238 17.8965 17.3943C16.8275 18.4648 15.5294 19 14.0022 19ZM14 17.5C15.1 17.5 16.0417 17.1083 16.825 16.325C17.6083 15.5417 18 14.6 18 13.5C18 12.4 17.6083 11.4583 16.825 10.675C16.0417 9.89167 15.1 9.5 14 9.5C12.9 9.5 11.9583 9.89167 11.175 10.675C10.3917 11.4583 10 12.4 10 13.5C10 14.6 10.3917 15.5417 11.175 16.325C11.9583 17.1083 12.9 17.5 14 17.5ZM14 15C13.591 15 13.2388 14.8523 12.9433 14.5568C12.6478 14.2613 12.5 13.909 12.5 13.5C12.5 13.091 12.6478 12.7387 12.9433 12.4432C13.2388 12.1477 13.591 12 14 12C14.409 12 14.7613 12.1477 15.0568 12.4432C15.3523 12.7387 15.5 13.091 15.5 13.5C15.5 13.909 15.3523 14.2613 15.0568 14.5568C14.7613 14.8523 14.409 15 14 15Z" fill="white"/>
</svg>
