<svg width="17" height="16" viewBox="0 0 17 16" fill="none" xmlns="http://www.w3.org/2000/svg">
<path d="M2.20141 16C1.72596 16 1.32353 15.8353 0.994118 15.5059C0.664706 15.1765 0.5 14.774 0.5 14.2986V1.70141C0.5 1.22596 0.664706 0.823529 0.994118 0.494118C1.32353 0.164706 1.72596 0 2.20141 0H14.7986C15.274 0 15.6765 0.164706 16.0059 0.494118C16.3353 0.823529 16.5 1.22596 16.5 1.70141V14.2986C16.5 14.774 16.3353 15.1765 16.0059 15.5059C15.6765 15.8353 15.274 16 14.7986 16H2.20141ZM2.20141 14.5882H14.7986C14.8711 14.5882 14.9374 14.558 14.9976 14.4976C15.058 14.4374 15.0882 14.3711 15.0882 14.2986V1.70141C15.0882 1.62894 15.058 1.56259 14.9976 1.50235C14.9374 1.44196 14.8711 1.41176 14.7986 1.41176H2.20141C2.12894 1.41176 2.06259 1.44196 2.00235 1.50235C1.94196 1.56259 1.91176 1.62894 1.91176 1.70141V14.2986C1.91176 14.3711 1.94196 14.4374 2.00235 14.4976C2.06259 14.558 2.12894 14.5882 2.20141 14.5882ZM3.55882 12.4706H13.5134L10.4186 8.344L7.776 11.7828L5.89365 9.37553L3.55882 12.4706Z" fill="#526067"/>
</svg>
