<svg width="27" height="27" viewBox="0 0 27 27" fill="none" xmlns="http://www.w3.org/2000/svg">
<path d="M5.97047 21.5V18.3235L18.3886 5.92C18.5346 5.77396 18.6951 5.66745 18.87 5.60047C19.0451 5.53349 19.22 5.5 19.3949 5.5C19.5796 5.5 19.7585 5.53349 19.9317 5.60047C20.1047 5.66745 20.2564 5.77396 20.3867 5.92L21.5505 7.08376C21.6965 7.21412 21.803 7.3658 21.87 7.53882C21.937 7.712 21.9705 7.8909 21.9705 8.07553C21.9705 8.25043 21.937 8.42541 21.87 8.60047C21.803 8.77537 21.6965 8.93584 21.5505 9.08188L9.14694 21.5H5.97047ZM7.38224 20.0882H8.546L18.1371 10.5118L17.5597 9.91082L16.9587 9.33341L7.38224 18.9245V20.0882ZM17.5597 9.91082L16.9587 9.33341L18.1371 10.5118L17.5597 9.91082ZM15.0385 21.5C16.1389 21.5 17.159 21.2309 18.0989 20.6927C19.0389 20.1545 19.5088 19.404 19.5088 18.4412C19.5088 17.8885 19.3433 17.4053 19.0121 16.9913C18.6808 16.5775 18.216 16.2276 17.6175 15.9416L16.5641 16.9951C17.0455 17.1761 17.4214 17.3893 17.6917 17.6348C17.9621 17.8803 18.0973 18.1491 18.0973 18.4412C18.0973 18.8864 17.7914 19.2722 17.1797 19.5986C16.5679 19.925 15.8542 20.0882 15.0385 20.0882C14.8382 20.0882 14.6704 20.1558 14.5352 20.2911C14.4001 20.4261 14.3326 20.5938 14.3326 20.7941C14.3326 20.9944 14.4001 21.1621 14.5352 21.2972C14.6704 21.4324 14.8382 21.5 15.0385 21.5ZM6.52977 14.852L7.57965 13.7932C7.21149 13.6376 6.92969 13.4765 6.73424 13.3099C6.53879 13.1435 6.44106 12.9715 6.44106 12.7941C6.44106 12.5576 6.59887 12.3241 6.91447 12.0936C7.22992 11.8632 7.85761 11.5459 8.79753 11.1416C10.1056 10.5818 10.9811 10.0753 11.4239 9.62212C11.8667 9.1691 12.0881 8.6578 12.0881 8.08824C12.0881 7.316 11.7626 6.69161 11.1117 6.21506C10.4607 5.73835 9.60969 5.5 8.55871 5.5C7.91322 5.5 7.31957 5.61647 6.77777 5.84941C6.23596 6.0822 5.8311 6.36698 5.56318 6.70376C5.43298 6.85937 5.37902 7.03098 5.4013 7.21859C5.42357 7.4062 5.51259 7.56031 5.66836 7.68094C5.82396 7.80533 5.99408 7.85631 6.17871 7.83388C6.36334 7.81161 6.52075 7.73529 6.65094 7.60494C6.88875 7.36729 7.16208 7.19231 7.47094 7.08C7.77981 6.96784 8.1424 6.91176 8.55871 6.91176C9.25016 6.91176 9.77596 7.02847 10.1361 7.26188C10.4963 7.49545 10.6764 7.7709 10.6764 8.08824C10.6764 8.36212 10.521 8.61043 10.2102 8.83318C9.89965 9.05576 9.24114 9.39451 8.23471 9.84941C7.022 10.3802 6.18459 10.8556 5.72247 11.2755C5.26036 11.6955 5.0293 12.2016 5.0293 12.7941C5.0293 13.2357 5.16114 13.6239 5.42483 13.9588C5.68851 14.2937 6.05683 14.5915 6.52977 14.852Z" fill="#BBCCD1"/>
</svg>
