<svg width="25" height="25" viewBox="0 0 25 25" fill="none" xmlns="http://www.w3.org/2000/svg">
<path d="M12.3462 16.5C13.4615 16.5 14.407 16.1122 15.1827 15.3365C15.9582 14.5608 16.3459 13.6153 16.3459 12.5C16.3459 11.3847 15.9582 10.4392 15.1827 9.6635C14.407 8.88783 13.4615 8.5 12.3462 8.5C11.2307 8.5 10.2852 8.88783 9.50969 9.6635C8.73403 10.4392 8.34619 11.3847 8.34619 12.5C8.34619 13.6153 8.73403 14.5608 9.50969 15.3365C10.2852 16.1122 11.2307 16.5 12.3462 16.5ZM12.3462 13.5C12.0629 13.5 11.8254 13.4042 11.6337 13.2125C11.442 13.0208 11.3462 12.7833 11.3462 12.5C11.3462 12.2167 11.442 11.9792 11.6337 11.7875C11.8254 11.5958 12.0629 11.5 12.3462 11.5C12.6295 11.5 12.867 11.5958 13.0587 11.7875C13.2504 11.9792 13.3462 12.2167 13.3462 12.5C13.3462 12.7833 13.2504 13.0208 13.0587 13.2125C12.867 13.4042 12.6295 13.5 12.3462 13.5ZM12.3462 22C11.032 22 9.79702 21.7507 8.64119 21.252C7.48536 20.7533 6.47994 20.0766 5.62494 19.2218C4.76994 18.3669 4.09302 17.3617 3.59419 16.206C3.09552 15.0503 2.84619 13.8156 2.84619 12.5017C2.84619 11.1877 3.09552 9.95267 3.59419 8.7965C4.09302 7.64033 4.76994 6.63467 5.62494 5.7795C6.47994 4.92433 7.48536 4.24725 8.64119 3.74825C9.79702 3.24942 11.032 3 12.3462 3C14.2567 3 15.9999 3.52183 17.5759 4.5655C19.1521 5.609 20.3178 7.00383 21.0729 8.75H19.3807C18.6999 7.43583 17.7284 6.399 16.4662 5.6395C15.204 4.87983 13.8307 4.5 12.3462 4.5C10.1129 4.5 8.22119 5.275 6.67119 6.825C5.12119 8.375 4.34619 10.2667 4.34619 12.5C4.34619 14.7333 5.12119 16.625 6.67119 18.175C8.22119 19.725 10.1129 20.5 12.3462 20.5C13.5667 20.5 14.7211 20.2304 15.8094 19.6913C16.8979 19.1523 17.8269 18.4026 18.5962 17.4423V19.5767C17.7257 20.3384 16.7564 20.9327 15.6884 21.3595C14.6204 21.7865 13.5064 22 12.3462 22ZM20.5962 18.5V10.75H22.0959V18.5H20.5962ZM21.3462 21.8267C21.1174 21.8267 20.9255 21.7494 20.7707 21.5947C20.6159 21.4399 20.5384 21.2481 20.5384 21.0193C20.5384 20.7904 20.6159 20.5986 20.7707 20.4438C20.9255 20.2889 21.1174 20.2115 21.3462 20.2115C21.575 20.2115 21.7668 20.2889 21.9214 20.4438C22.0763 20.5986 22.1537 20.7904 22.1537 21.0193C22.1537 21.2481 22.0763 21.4399 21.9214 21.5947C21.7668 21.7494 21.575 21.8267 21.3462 21.8267Z" fill="#BBCCD1"/>
</svg>
