<svg width="116" height="115" viewBox="0 0 116 115" fill="none" xmlns="http://www.w3.org/2000/svg">
<g clip-path="url(#clip0_2089_641)">
<path d="M45.0042 68.2663C26.5127 63.8565 15.0428 45.168 19.436 26.6063C23.8291 8.04456 42.447 -3.4688 60.9385 0.940982C66.3101 2.22783 71.2961 4.78866 75.4784 8.40875C79.6607 12.0288 82.9174 16.6027 84.9754 21.7468L84.6049 21.8962C82.5707 16.8115 79.3518 12.2906 75.2179 8.71231C71.084 5.13406 66.1557 2.60283 60.8463 1.33085C42.569 -3.02781 24.1666 8.35231 19.8244 26.6989C15.4822 45.0455 26.8193 63.5178 45.0965 67.8764C50.184 69.1073 55.4865 69.1374 60.5876 67.9643C65.6886 66.7912 70.4493 64.4469 74.4955 61.1156L74.7474 61.4263C70.6538 64.7966 65.8374 67.1684 60.6767 68.3552C55.5159 69.5421 50.1513 69.5116 45.0042 68.2663Z" fill="#E6E6E6"/>
<path d="M107.262 48.6376H79.6347C78.1369 48.6376 76.9182 46.9382 76.9182 44.8494V16.357C76.9182 14.2682 78.1369 12.5687 79.6347 12.5687H113.283C114.781 12.5687 116 14.2682 116 16.357V36.4525C116 43.1715 112.08 48.6376 107.262 48.6376Z" fill="#F2F2F2"/>
<path d="M57.221 110.567H59.4243L61.5655 93.9327H56.5753L57.221 110.567Z" fill="#A0616A"/>
<path d="M56.502 109.052L60.0219 108.841V110.355L63.3684 112.675C63.5337 112.79 63.6582 112.954 63.7237 113.145C63.7892 113.335 63.7923 113.542 63.7325 113.735C63.6727 113.927 63.5532 114.095 63.3914 114.215C63.2296 114.334 63.034 114.399 62.8331 114.399H58.6426L57.9203 112.901L57.6382 114.399H56.0582L56.502 109.052Z" fill="#2F2E41"/>
<path d="M24.5061 105.291L26.5162 106.197L35.2544 91.9006L30.7017 89.8499L24.5061 105.291Z" fill="#A0616A"/>
<path d="M24.4679 103.614L27.7652 104.868L27.1478 106.249L29.2546 109.741C29.3587 109.914 29.4051 110.115 29.3872 110.316C29.3692 110.517 29.2877 110.706 29.1546 110.857C29.0216 111.008 28.8439 111.113 28.6476 111.155C28.4512 111.198 28.2465 111.176 28.0632 111.094L24.24 109.371L24.1918 107.709L23.3237 108.959L21.8822 108.309L24.4679 103.614Z" fill="#2F2E41"/>
<path d="M40.3581 57.6386L50.5493 56.2515C50.5493 56.2515 63.6509 86.6668 63.1024 102.22L54.7884 103.25C54.7884 103.25 54.8516 96.8721 55.3128 96.3841C55.7741 95.8962 56.343 96.5168 55.7741 95.1214C55.2051 93.7259 54.7486 93.3734 55.432 92.693C56.1154 92.0126 48.0301 80.1125 48.0301 80.1125C48.0301 80.1125 35.3078 96.1751 34.625 96.632C33.9423 97.0889 33.1665 97.1897 33.6113 98.3387C34.0561 99.4876 33.2592 101.689 33.2592 101.689C33.2592 101.689 28.2454 100.926 26.1971 95.9C26.1971 95.9 34.4796 80.754 35.2315 80.5026C35.9833 80.2513 36.3247 81.5077 35.9833 80.2512C35.6419 78.9948 34.9592 79.4517 35.6419 78.9948C36.1018 78.7001 36.5995 78.4696 37.1212 78.3094L39.7705 71.2789C37.7281 66.5766 37.8588 62.0252 40.3581 57.6386Z" fill="#2F2E41"/>
<path d="M40.2604 49.5902L40.6344 53.0728L40.4143 57.6397L50.4915 56.4379L51.4384 49.5902L50.232 49.602L40.2604 49.5902Z" fill="#FFB6B6"/>
<path d="M48.832 38.3412L45.0394 35.3357L43.0486 35.2195L40.0946 37.1192L39.3712 40.8234L37.6605 44.9946L40.1697 56.2515C40.1697 56.2515 40.405 57.0593 39.7883 57.1563C39.1716 57.2534 39.2456 58.444 39.2456 58.444C39.2456 58.444 39.3711 59.476 38.7723 59.5669C38.1735 59.6577 36.5767 59.6577 37.974 61.461C39.3712 63.2643 50.6878 56.4298 50.6878 56.4298L52.0278 47.9897C52.0278 47.9897 55.1407 43.7928 51.7883 41.3892L48.832 38.3412Z" fill="#2FDA77"/>
<path d="M32.2758 63.8995C32.1087 63.6902 31.9893 63.4467 31.9261 63.186C31.8629 62.9254 31.8574 62.654 31.91 62.391C31.9626 62.128 32.072 61.8798 32.2305 61.6638C32.389 61.4479 32.5927 61.2694 32.8274 61.1411L37.5978 45.0708L40.5807 46.5783L35.3856 61.9814C35.5743 62.3914 35.6067 62.8566 35.4765 63.2889C35.3464 63.7212 35.0628 64.0906 34.6794 64.327C34.2961 64.5635 33.8397 64.6505 33.3967 64.5717C32.9537 64.4929 32.5548 64.2538 32.2758 63.8995Z" fill="#A0616A"/>
<path d="M40.7796 36.9705C40.7796 36.9705 39.9269 36.5156 39.3437 38.4841C38.8768 40.0599 35.0879 49.4466 35.0396 51.7288C34.7278 51.7951 34.4468 51.9637 34.241 52.208C34.0351 52.4522 33.9161 52.7583 33.9026 53.0779L38.5872 53.7081C39.4057 53.0151 39.6205 52.079 39.3038 51.8012L40.3209 49.0127L44.5642 40.1406L41.4018 37.2883L40.7796 36.9705Z" fill="#2FDA77"/>
<path d="M65.8107 58.6173C65.8712 58.356 65.8739 58.0846 65.8186 57.8222C65.7633 57.5597 65.6514 57.3127 65.4907 57.0984C65.3299 56.884 65.1244 56.7077 64.8884 56.5818C64.6525 56.4559 64.3919 56.3834 64.125 56.3695L53.1817 43.824L50.8604 46.6044L62.1804 58.2377C62.1868 58.6893 62.3581 59.1228 62.6617 59.4561C62.9653 59.7894 63.3801 59.9993 63.8276 60.0461C64.2751 60.0929 64.7241 59.9733 65.0896 59.71C65.4551 59.4466 65.7117 59.0578 65.8107 58.6173Z" fill="#A0616A"/>
<path d="M46.5419 38.0278C46.5419 38.0278 47.1147 37.2475 48.4886 38.7692C49.5885 39.9874 57.0487 46.8064 58.0754 48.8431C58.3851 48.7676 58.7111 48.7976 59.0019 48.9285C59.2928 49.0594 59.532 49.2837 59.6818 49.566L55.7294 52.1677C54.6927 51.8982 54.0959 51.1474 54.2617 50.7594L52.1433 48.6866L44.4951 42.529L46.1178 38.5844L46.5419 38.0278Z" fill="#2FDA77"/>
<path d="M48.4834 35.4857C48.9225 34.8525 45.128 33.3558 44.3934 33.6403C42.8864 34.2274 41.1059 35.4816 39.7206 35.66C39.7471 35.1082 39.6981 34.5554 39.5749 34.017C39.4252 34.564 39.2775 35.113 39.1278 35.662C37.8203 35.4756 35.6426 33.2756 36.1775 28.2004C36.3991 26.1106 37.9261 23.8885 42.9163 23.065C47.5233 22.3076 48.6471 25.7399 49.0782 27.982C50.0603 33.0733 49.5752 35.4075 48.4834 35.4857Z" fill="#2F2E41"/>
<path d="M44.1947 33.6478C46.4746 33.6478 48.3228 31.7926 48.3228 29.504C48.3228 27.2155 46.4746 25.3603 44.1947 25.3603C41.9149 25.3603 40.0667 27.2155 40.0667 29.504C40.0667 31.7926 41.9149 33.6478 44.1947 33.6478Z" fill="#A0616A"/>
<path d="M49.7508 28.0254L47.7734 28.3288C46.9013 27.7805 46.5692 26.967 46.5277 26.0106L46.7266 28.4893L45.7815 28.6343C45.1646 28.2212 44.889 27.7738 45.0548 27.2821L45.1708 28.728C42.6516 29.6391 40.2097 30.311 38.1481 29.8053C38.0419 29.1076 38.0736 28.3958 38.2415 27.7105C38.4093 27.0251 38.71 26.3797 39.1263 25.811C39.5427 25.2423 40.0665 24.7614 40.668 24.396C41.2695 24.0305 41.9368 23.7875 42.6318 23.6809L43.6496 23.5248C44.3446 23.4181 45.0537 23.45 45.7365 23.6185C46.4192 23.7869 47.0622 24.0888 47.6288 24.5067C48.1954 24.9246 48.6744 25.4505 49.0385 26.0542C49.4026 26.6579 49.6446 27.3278 49.7508 28.0254Z" fill="#2F2E41"/>
<path d="M13.4673 110.571C13.3525 110.577 13.2389 110.546 13.1418 110.485C13.0448 110.423 12.9689 110.333 12.9246 110.226C12.8803 110.12 12.8696 110.002 12.894 109.89C12.9185 109.777 12.9768 109.675 13.0612 109.596L13.0996 109.443C13.0945 109.431 13.0894 109.419 13.0843 109.406C12.9687 109.132 12.7749 108.898 12.5274 108.734C12.2798 108.57 11.9895 108.484 11.693 108.485C11.3964 108.486 11.1067 108.575 10.8604 108.741C10.6141 108.906 10.422 109.142 10.3084 109.417C9.85442 110.514 9.27639 111.614 9.13406 112.774C9.07138 113.287 9.09782 113.807 9.21221 114.311C8.14586 111.976 7.59214 109.439 7.58857 106.87C7.58835 106.225 7.62402 105.581 7.69543 104.941C7.75445 104.416 7.83633 103.894 7.94106 103.377C8.51261 100.568 9.73973 97.9354 11.5217 95.6952C12.3841 95.2228 13.0816 94.4964 13.5201 93.6139C13.679 93.2967 13.7912 92.958 13.8534 92.6085C13.7562 92.6213 13.4866 91.134 13.56 91.0427C13.4244 90.8362 13.1817 90.7335 13.0337 90.532C12.2972 89.5298 11.2826 89.7048 10.7529 91.0667C9.62139 91.64 9.61044 92.5907 10.3047 93.505C10.7464 94.0867 10.8071 94.8739 11.1947 95.4966C11.1548 95.5479 11.1134 95.5975 11.0735 95.6487C10.3446 96.5895 9.70933 97.5998 9.17677 98.665C9.30628 97.4717 9.1517 96.2645 8.72575 95.1428C8.29406 94.0975 7.48493 93.2171 6.77239 92.3134C5.91651 91.2279 4.16145 91.7016 4.01067 93.0776C4.00921 93.091 4.00778 93.1043 4.00639 93.1176C4.11223 93.1775 4.21583 93.2412 4.31719 93.3084C4.44454 93.3938 4.54321 93.5159 4.60028 93.6585C4.65736 93.8012 4.67017 93.9578 4.63705 94.1079C4.60392 94.258 4.5264 94.3945 4.41464 94.4997C4.30288 94.6048 4.16209 94.6735 4.01073 94.697L3.99523 94.6994C4.03293 95.0823 4.09957 95.4617 4.19459 95.8345C3.28048 99.383 5.25397 100.675 8.07184 100.733C8.13404 100.765 8.19466 100.797 8.25686 100.828C7.7218 102.35 7.38618 103.935 7.25844 105.544C7.18612 106.494 7.19038 107.447 7.2712 108.396L7.26641 108.362C7.06224 107.307 6.5017 106.356 5.67945 105.668C4.45821 104.661 2.73282 104.29 1.41531 103.48C1.27529 103.39 1.11248 103.342 0.946091 103.342C0.779697 103.341 0.616657 103.389 0.476201 103.478C0.335745 103.568 0.223727 103.696 0.153367 103.847C0.0830059 103.998 0.0572373 104.167 0.0790924 104.332C0.0808583 104.344 0.0826503 104.356 0.0844773 104.368C0.280879 104.448 0.472111 104.54 0.657053 104.645C0.762889 104.705 0.86649 104.768 0.967856 104.835C1.0952 104.921 1.19386 105.043 1.25094 105.186C1.30801 105.328 1.32083 105.485 1.2877 105.635C1.25457 105.785 1.17705 105.922 1.06529 106.027C0.953532 106.132 0.812751 106.201 0.66139 106.224L0.645875 106.226C0.634715 106.228 0.62514 106.23 0.613992 106.231C0.949571 107.035 1.42057 107.776 2.00635 108.42C2.57792 111.517 5.0328 111.811 7.65876 110.909H7.66035C7.94847 112.166 8.36593 113.389 8.906 114.559H13.3558C13.3718 114.51 13.3861 114.459 13.4005 114.409C12.9886 114.435 12.5751 114.41 12.1692 114.335C12.4993 113.929 12.8295 113.519 13.1597 113.112C13.167 113.105 13.1739 113.097 13.1804 113.088C13.3479 112.88 13.5169 112.673 13.6844 112.465L13.6845 112.465C13.6934 111.827 13.6203 111.191 13.4673 110.571Z" fill="#F2F2F2"/>
<path d="M0.237712 114.938L115.362 115C115.425 115 115.485 114.975 115.53 114.93C115.574 114.885 115.599 114.825 115.599 114.761C115.599 114.698 115.574 114.637 115.53 114.593C115.485 114.548 115.425 114.523 115.362 114.523L0.237712 114.461C0.174797 114.461 0.11452 114.487 0.0700969 114.531C0.0256738 114.576 0.000732422 114.637 0.000732422 114.7C0.000732422 114.763 0.0256738 114.824 0.0700969 114.868C0.11452 114.913 0.174797 114.938 0.237712 114.938Z" fill="#CACACA"/>
<path d="M103.204 59.4073H65.8902C65.17 59.4065 64.4795 59.1189 63.9703 58.6077C63.461 58.0965 63.1745 57.4035 63.1737 56.6805V21.8725C63.1745 21.1495 63.461 20.4565 63.9703 19.9453C64.4795 19.4341 65.17 19.1465 65.8902 19.1457H103.204C103.924 19.1465 104.615 19.4341 105.124 19.9453C105.633 20.4565 105.92 21.1495 105.92 21.8725V56.6805C105.92 57.4035 105.633 58.0965 105.124 58.6077C104.615 59.1189 103.924 59.4065 103.204 59.4073Z" fill="#E6E6E6"/>
<path d="M95.3506 57.568H67.7229C67.0027 57.5672 66.3123 57.2796 65.803 56.7685C65.2938 56.2573 65.0073 55.5642 65.0065 54.8413V23.7132C65.0073 22.9902 65.2938 22.2972 65.803 21.786C66.3123 21.2748 67.0027 20.9872 67.7229 20.9864H101.372C102.092 20.9872 102.782 21.2748 103.292 21.786C103.801 22.2972 104.087 22.9902 104.088 23.7132V48.7972C104.086 51.1226 103.164 53.352 101.526 54.9962C99.8881 56.6405 97.6671 57.5654 95.3506 57.568Z" fill="white"/>
<path d="M80.6677 31.3727C80.6679 32.1654 80.4339 32.9405 79.9953 33.5997C79.5567 34.259 78.9332 34.7729 78.2036 35.0765C77.474 35.38 76.6711 35.4596 75.8965 35.3052C75.1219 35.1507 74.4103 34.7691 73.8517 34.2087C73.2931 33.6482 72.9126 32.9341 72.7583 32.1566C72.6041 31.3791 72.6829 30.5732 72.985 29.8407C73.287 29.1082 73.7987 28.482 74.4552 28.0414C75.1118 27.6008 75.8838 27.3656 76.6736 27.3654C77.1981 27.3647 77.7176 27.4678 78.2024 27.6689C78.6872 27.87 79.1277 28.1652 79.4987 28.5374C79.8697 28.9096 80.1639 29.3516 80.3645 29.8382C80.5651 30.3247 80.6682 30.8461 80.6677 31.3727Z" fill="#2FDA77"/>
<path d="M83.4102 38.6037H73.708C73.1491 38.6037 72.696 39.0585 72.696 39.6195V40.1049C72.696 40.6659 73.1491 41.1207 73.708 41.1207H83.4102C83.969 41.1207 84.4221 40.6659 84.4221 40.1049V39.6195C84.4221 39.0585 83.969 38.6037 83.4102 38.6037Z" fill="#3F3D56"/>
<path d="M95.3536 43.6376H73.7409C73.1821 43.6376 72.729 44.0924 72.729 44.6534V45.1389C72.729 45.6999 73.1821 46.1546 73.7409 46.1546H95.3536C95.9125 46.1546 96.3655 45.6999 96.3655 45.1389V44.6534C96.3655 44.0924 95.9125 43.6376 95.3536 43.6376Z" fill="#3F3D56"/>
<path d="M95.3536 48.6716H73.7409C73.1821 48.6716 72.729 49.1264 72.729 49.6874V50.1729C72.729 50.7338 73.1821 51.1886 73.7409 51.1886H95.3536C95.9125 51.1886 96.3655 50.7338 96.3655 50.1729V49.6874C96.3655 49.1264 95.9125 48.6716 95.3536 48.6716Z" fill="#3F3D56"/>
<path d="M76.7626 31.9536C77.5343 31.9536 78.1599 31.3256 78.1599 30.551C78.1599 29.7764 77.5343 29.1484 76.7626 29.1484C75.9909 29.1484 75.3654 29.7764 75.3654 30.551C75.3654 31.3256 75.9909 31.9536 76.7626 31.9536Z" fill="white"/>
<path d="M78.2604 32.4547H75.2663C75.081 32.4549 74.9034 32.5288 74.7725 32.6603C74.6415 32.7918 74.5678 32.97 74.5676 33.1559C74.6103 33.7566 74.7037 34.3525 74.8471 34.9372C75.4475 35.2478 76.1168 35.4002 76.792 35.3803C77.4672 35.3603 78.1263 35.1685 78.7075 34.823C78.8357 34.2749 78.9198 33.7175 78.959 33.1559C78.9588 32.97 78.8851 32.7918 78.7542 32.6603C78.6232 32.5288 78.4456 32.4549 78.2604 32.4547Z" fill="white"/>
<path d="M99.5865 27.7606C99.0647 27.7606 98.5546 27.6052 98.1207 27.3142C97.6868 27.0232 97.3486 26.6096 97.149 26.1256C96.9493 25.6417 96.897 25.1092 96.9988 24.5954C97.1006 24.0817 97.3519 23.6098 97.7209 23.2394C98.0899 22.869 98.56 22.6168 99.0718 22.5146C99.5836 22.4124 100.114 22.4648 100.596 22.6653C101.078 22.8657 101.49 23.2052 101.78 23.6407C102.07 24.0763 102.225 24.5883 102.225 25.1121C102.225 25.8145 101.947 26.4882 101.452 26.9849C100.957 27.4815 100.286 27.7606 99.5865 27.7606Z" fill="#E6E6E6"/>
<path d="M100.507 25.6663L99.9546 25.1121L100.507 24.5579C100.556 24.5089 100.583 24.4425 100.583 24.3732C100.583 24.3039 100.556 24.2375 100.507 24.1885C100.458 24.1395 100.392 24.1119 100.323 24.1119C100.254 24.1119 100.187 24.1395 100.139 24.1885L99.5865 24.7427L99.0344 24.1885C98.9856 24.1395 98.9194 24.1119 98.8504 24.1119C98.7813 24.1119 98.7151 24.1395 98.6663 24.1885C98.6175 24.2375 98.5901 24.3039 98.5901 24.3732C98.5901 24.4425 98.6175 24.5089 98.6663 24.5579L99.2184 25.1121L98.6663 25.6663C98.6175 25.7153 98.5901 25.7818 98.5901 25.8511C98.5901 25.9204 98.6175 25.9868 98.6663 26.0358C98.7151 26.0848 98.7813 26.1123 98.8504 26.1123C98.9194 26.1123 98.9856 26.0848 99.0344 26.0358L99.5865 25.4816L100.139 26.0358C100.163 26.0601 100.191 26.0793 100.223 26.0924C100.255 26.1056 100.288 26.1123 100.323 26.1123C100.357 26.1123 100.391 26.1056 100.422 26.0924C100.454 26.0793 100.483 26.0601 100.507 26.0358C100.531 26.0115 100.55 25.9827 100.563 25.951C100.576 25.9193 100.583 25.8854 100.583 25.8511C100.583 25.8168 100.576 25.7828 100.563 25.7511C100.55 25.7194 100.531 25.6906 100.507 25.6663Z" fill="white"/>
</g>
<defs>
<clipPath id="clip0_2089_641">
<rect width="116" height="115" fill="white"/>
</clipPath>
</defs>
</svg>
