<svg width="10" height="19" viewBox="0 0 10 19" fill="none" xmlns="http://www.w3.org/2000/svg">
<path d="M4.02501 18.5V16.35C3.14168 16.15 2.37918 15.7667 1.73751 15.2C1.09585 14.6333 0.625012 13.8333 0.325012 12.8L2.17501 12.05C2.42501 12.85 2.79585 13.4583 3.28751 13.875C3.77918 14.2917 4.42501 14.5 5.22501 14.5C5.90835 14.5 6.48751 14.3458 6.96251 14.0375C7.43751 13.7292 7.67501 13.25 7.67501 12.6C7.67501 12.0167 7.49168 11.5542 7.12501 11.2125C6.75835 10.8708 5.90835 10.4833 4.57501 10.05C3.14168 9.6 2.15835 9.0625 1.62501 8.4375C1.09168 7.8125 0.825012 7.05 0.825012 6.15C0.825012 5.06667 1.17501 4.225 1.87501 3.625C2.57501 3.025 3.29168 2.68333 4.02501 2.6V0.5H6.02501V2.6C6.85835 2.73333 7.54585 3.0375 8.08751 3.5125C8.62918 3.9875 9.02501 4.56667 9.27501 5.25L7.42501 6.05C7.22501 5.51667 6.94168 5.11667 6.57501 4.85C6.20835 4.58333 5.70835 4.45 5.07501 4.45C4.34168 4.45 3.78335 4.6125 3.40001 4.9375C3.01668 5.2625 2.82501 5.66667 2.82501 6.15C2.82501 6.7 3.07501 7.13333 3.57501 7.45C4.07501 7.76667 4.94168 8.1 6.17501 8.45C7.32501 8.78333 8.19585 9.3125 8.78751 10.0375C9.37918 10.7625 9.67501 11.6 9.67501 12.55C9.67501 13.7333 9.32501 14.6333 8.62501 15.25C7.92501 15.8667 7.05835 16.25 6.02501 16.4V18.5H4.02501Z" fill="#526067"/>
</svg>
