<svg width="40" height="40" viewBox="0 0 40 40" fill="none" xmlns="http://www.w3.org/2000/svg">
<rect width="40" height="40" rx="20" fill="#02B194"/>
<path d="M19.025 29V26.85C18.1417 26.65 17.3792 26.2667 16.7375 25.7C16.0958 25.1333 15.625 24.3333 15.325 23.3L17.175 22.55C17.425 23.35 17.7958 23.9583 18.2875 24.375C18.7792 24.7917 19.425 25 20.225 25C20.9083 25 21.4875 24.8458 21.9625 24.5375C22.4375 24.2292 22.675 23.75 22.675 23.1C22.675 22.5167 22.4917 22.0542 22.125 21.7125C21.7583 21.3708 20.9083 20.9833 19.575 20.55C18.1417 20.1 17.1583 19.5625 16.625 18.9375C16.0917 18.3125 15.825 17.55 15.825 16.65C15.825 15.5667 16.175 14.725 16.875 14.125C17.575 13.525 18.2917 13.1833 19.025 13.1V11H21.025V13.1C21.8583 13.2333 22.5458 13.5375 23.0875 14.0125C23.6292 14.4875 24.025 15.0667 24.275 15.75L22.425 16.55C22.225 16.0167 21.9417 15.6167 21.575 15.35C21.2083 15.0833 20.7083 14.95 20.075 14.95C19.3417 14.95 18.7833 15.1125 18.4 15.4375C18.0167 15.7625 17.825 16.1667 17.825 16.65C17.825 17.2 18.075 17.6333 18.575 17.95C19.075 18.2667 19.9417 18.6 21.175 18.95C22.325 19.2833 23.1958 19.8125 23.7875 20.5375C24.3792 21.2625 24.675 22.1 24.675 23.05C24.675 24.2333 24.325 25.1333 23.625 25.75C22.925 26.3667 22.0583 26.75 21.025 26.9V29H19.025Z" fill="white"/>
</svg>
