<svg width="18" height="19" viewBox="0 0 18 19" fill="none" xmlns="http://www.w3.org/2000/svg">
<path d="M9 13.9818C9.21679 13.9818 9.39853 13.9084 9.54521 13.7617C9.69189 13.6151 9.76524 13.4333 9.76524 13.2165C9.76524 12.9997 9.69189 12.818 9.54521 12.6713C9.39853 12.5248 9.21679 12.4515 9 12.4515C8.78321 12.4515 8.60147 12.5248 8.45479 12.6713C8.30811 12.818 8.23476 12.9997 8.23476 13.2165C8.23476 13.4333 8.30811 13.6151 8.45479 13.7617C8.60147 13.9084 8.78321 13.9818 9 13.9818ZM8.28947 10.5203H9.71053V4.83611H8.28947V10.5203ZM9.00166 18.5C7.75682 18.5 6.58674 18.2638 5.49142 17.7914C4.3961 17.3189 3.44337 16.6778 2.63321 15.868C1.82305 15.0581 1.18161 14.1058 0.708868 13.0109C0.236289 11.9161 0 10.7463 0 9.50166C0 8.25682 0.23621 7.08674 0.708632 5.99142C1.18105 4.8961 1.82218 3.94337 2.63203 3.13321C3.44187 2.32305 4.39421 1.68161 5.48905 1.20887C6.58389 0.736289 7.75366 0.5 8.99834 0.5C10.2432 0.5 11.4133 0.73621 12.5086 1.20863C13.6039 1.68105 14.5566 2.32218 15.3668 3.13203C16.1769 3.94187 16.8184 4.89421 17.2911 5.98905C17.7637 7.08389 18 8.25366 18 9.49834C18 10.7432 17.7638 11.9133 17.2914 13.0086C16.8189 14.1039 16.1778 15.0566 15.368 15.8668C14.5581 16.6769 13.6058 17.3184 12.5109 17.7911C11.4161 18.2637 10.2463 18.5 9.00166 18.5ZM9 17.0789C11.1158 17.0789 12.9079 16.3447 14.3763 14.8763C15.8447 13.4079 16.5789 11.6158 16.5789 9.5C16.5789 7.38421 15.8447 5.59211 14.3763 4.12368C12.9079 2.65526 11.1158 1.92105 9 1.92105C6.88421 1.92105 5.09211 2.65526 3.62368 4.12368C2.15526 5.59211 1.42105 7.38421 1.42105 9.5C1.42105 11.6158 2.15526 13.4079 3.62368 14.8763C5.09211 16.3447 6.88421 17.0789 9 17.0789Z" fill="#A60909"/>
</svg>
