<svg width="41" height="40" viewBox="0 0 41 40" fill="none" xmlns="http://www.w3.org/2000/svg">
<rect x="0.5" width="40" height="40" rx="20" fill="#E86A6D"/>
<path d="M19.9836 25.4086C18.5568 25.2868 17.3575 24.7054 16.3856 23.6644C15.4138 22.6234 14.9279 21.3779 14.9279 19.9279C14.9279 18.4 15.4626 17.1014 16.5321 16.0321C17.6015 14.9626 18.9001 14.4279 20.4279 14.4279C21.8779 14.4279 23.1234 14.9122 24.1644 15.8809C25.2054 16.8494 25.7868 18.0471 25.9086 19.4741L24.3184 19.0029C24.1022 18.1029 23.6366 17.3654 22.9216 16.7904C22.2068 16.2154 21.3756 15.9279 20.4279 15.9279C19.3279 15.9279 18.3862 16.3195 17.6029 17.1029C16.8196 17.8862 16.4279 18.8279 16.4279 19.9279C16.4279 20.8779 16.717 21.7112 17.2951 22.4279C17.8733 23.1445 18.6092 23.6112 19.5029 23.8279L19.9836 25.4086ZM21.1836 29.3874C21.0576 29.4144 20.9317 29.4279 20.8059 29.4279H20.4279C19.1137 29.4279 17.8787 29.1785 16.7229 28.6799C15.5671 28.1812 14.5616 27.5044 13.7066 26.6496C12.8516 25.7948 12.1748 24.7895 11.6761 23.6339C11.1773 22.4782 10.9279 21.2434 10.9279 19.9296C10.9279 18.6156 11.1772 17.3805 11.6759 16.2244C12.1746 15.0682 12.8513 14.0625 13.7061 13.2074C14.561 12.3522 15.5662 11.6751 16.7219 11.1761C17.8776 10.6773 19.1123 10.4279 20.4261 10.4279C21.7401 10.4279 22.9752 10.6773 24.1314 11.1761C25.2876 11.6748 26.2932 12.3516 27.1484 13.2066C28.0036 14.0616 28.6806 15.067 29.1796 16.2229C29.6785 17.3787 29.9279 18.6137 29.9279 19.9279V20.3009C29.9279 20.4252 29.9144 20.5496 29.8874 20.6741L28.4279 20.2279V19.9279C28.4279 17.6945 27.6529 15.8029 26.1029 14.2529C24.5529 12.7029 22.6612 11.9279 20.4279 11.9279C18.1946 11.9279 16.3029 12.7029 14.7529 14.2529C13.2029 15.8029 12.4279 17.6945 12.4279 19.9279C12.4279 22.1612 13.2029 24.0529 14.7529 25.6029C16.3029 27.1529 18.1946 27.9279 20.4279 27.9279H20.7279L21.1836 29.3874ZM28.5681 29.5721L24.0336 25.0279L22.9471 28.3124L20.4279 19.9279L28.8124 22.4471L25.5279 23.5336L30.0721 28.0681L28.5681 29.5721Z" fill="white"/>
</svg>
