<svg width="631" height="455" viewBox="0 0 631 455" fill="none" xmlns="http://www.w3.org/2000/svg">
<path d="M626 385.356C626 551.792 478.436 366.506 312 366.506C145.564 366.506 3.99978 551.792 3.99978 385.356C3.99978 218.92 112.564 0 279 0C445.436 0 626 218.92 626 385.356Z" fill="url(#paint0_linear_424_2890)"/>
<g clip-path="url(#clip0_424_2890)">
<path d="M152.941 382.29L153.643 366.503C160.962 362.591 169.126 360.524 177.425 360.483C166.003 369.821 167.43 387.822 159.686 400.38C157.241 404.279 153.95 407.576 150.057 410.03C146.164 412.483 141.769 414.029 137.197 414.553L127.638 420.405C126.327 413.093 126.616 405.584 128.486 398.395C130.356 391.205 133.762 384.507 138.47 378.761C141.143 375.564 144.209 372.716 147.593 370.284C149.883 376.32 152.941 382.29 152.941 382.29Z" fill="#F2F2F2"/>
<path d="M462.129 110.729H156.716C155.211 110.729 153.768 111.326 152.703 112.39C151.638 113.453 151.039 114.896 151.037 116.4V260.567C151.039 262.073 151.638 263.516 152.702 264.581C153.767 265.646 155.211 266.245 156.716 266.246H462.129C463.633 266.243 465.075 265.644 466.138 264.579C467.201 263.514 467.799 262.072 467.8 260.567V116.4C467.799 114.897 467.201 113.455 466.138 112.392C465.074 111.328 463.632 110.73 462.129 110.729Z" fill="#3F3D56"/>
<path d="M381.457 180.184C379.953 180.185 378.511 180.783 377.448 181.847C376.385 182.91 375.786 184.352 375.785 185.856V226.579C375.786 228.083 376.384 229.526 377.447 230.59C378.51 231.655 379.952 232.254 381.457 232.258H467.801V180.184H381.457Z" fill="#86F5A6"/>
<path opacity="0.5" d="M612.984 232.255H381.46C379.955 232.253 378.512 231.654 377.448 230.59C376.384 229.526 375.785 228.083 375.784 226.578V185.857C375.785 184.352 376.384 182.909 377.448 181.845C378.512 180.781 379.955 180.182 381.46 180.181H612.984C614.489 180.182 615.932 180.781 616.996 181.845C618.06 182.909 618.659 184.352 618.66 185.857V226.578C618.659 228.083 618.06 229.526 616.996 230.59C615.932 231.654 614.489 232.253 612.984 232.255Z" fill="#86F5A6"/>
<path d="M412.77 218.032C417.857 218.032 421.981 213.908 421.981 208.821C421.981 203.734 417.857 199.61 412.77 199.61C407.683 199.61 403.559 203.734 403.559 208.821C403.559 213.908 407.683 218.032 412.77 218.032Z" fill="white"/>
<path d="M605.81 206.145H439.376C438.648 206.145 437.951 205.856 437.436 205.341C436.922 204.827 436.633 204.129 436.633 203.402C436.633 202.674 436.922 201.977 437.436 201.462C437.951 200.948 438.648 200.659 439.376 200.659H605.81C606.538 200.659 607.236 200.948 607.75 201.462C608.264 201.977 608.553 202.674 608.553 203.402C608.553 204.129 608.264 204.827 607.75 205.341C607.236 205.856 606.538 206.145 605.81 206.145Z" fill="white"/>
<path d="M542.597 216.983H439.376C438.648 216.983 437.95 216.694 437.436 216.18C436.922 215.665 436.633 214.968 436.633 214.24C436.633 213.513 436.922 212.815 437.436 212.3C437.95 211.786 438.648 211.497 439.376 211.497H542.597C543.324 211.497 544.022 211.786 544.536 212.3C545.051 212.815 545.34 213.513 545.34 214.24C545.34 214.968 545.051 215.665 544.536 216.18C544.022 216.694 543.324 216.983 542.597 216.983Z" fill="white"/>
<path d="M106.544 412.894L114.516 412.893L118.308 382.146H106.543L106.544 412.894Z" fill="#FFB6B6"/>
<path d="M104.511 410.291L106.755 410.291L115.515 406.729L120.21 410.291C122.863 410.291 125.408 411.345 127.284 413.221C129.16 415.097 130.214 417.642 130.215 420.295V420.62L104.511 420.621L104.511 410.291Z" fill="#2F2E41"/>
<path d="M34.5171 402.53L41.6519 406.086L58.7616 380.259L48.2322 375.011L34.5171 402.53Z" fill="#FFB6B6"/>
<path d="M33.8586 399.293L35.8667 400.294L45.2959 401.014L47.9089 406.296C50.2835 407.48 52.0912 409.558 52.9334 412.074C53.7756 414.59 53.5839 417.338 52.4004 419.713L52.2554 420.004L29.251 408.538L33.8586 399.293Z" fill="#2F2E41"/>
<path d="M110.076 273.251L59.3917 274.574L60.2731 299.255C60.2731 299.255 59.3917 305.866 61.1546 307.629C62.9176 309.392 63.799 309.392 62.9176 312.477C62.0361 315.562 59.7573 345.04 59.7573 345.04C59.7573 345.04 38.9548 381.822 39.8363 382.703C40.7178 383.585 41.5992 382.703 40.7178 384.907C39.8363 387.111 38.9548 386.229 39.8363 387.111C40.6171 387.953 41.3527 388.835 42.04 389.755H56.4064C56.4064 389.755 57.2098 385.348 57.2098 384.907C57.2098 384.466 58.0912 381.822 58.0912 381.381C58.0912 380.941 83.1914 354.347 83.1914 354.347L88.4803 310.273L101.262 353.465C101.262 353.465 101.262 391.369 102.143 392.25C103.025 393.132 103.025 392.691 102.584 394.454C102.143 396.217 100.38 395.776 101.702 397.098C103.025 398.42 103.465 396.217 103.025 398.421L102.584 400.624L119.517 400.813C119.517 400.813 121.279 397.098 120.398 395.776C119.517 394.454 119.569 394.815 120.645 392.651C121.72 390.487 122.161 390.046 121.72 389.606C121.279 389.165 121.279 386.821 121.279 386.821C121.279 386.821 114.924 300.136 114.924 298.814C114.891 298.134 115.017 297.455 115.291 296.831V295.037L113.602 288.677L110.076 273.251Z" fill="#2F2E41"/>
<path d="M611.994 196.725C608.147 196.725 604.387 195.585 601.189 193.447C597.99 191.31 595.497 188.273 594.025 184.719C592.553 181.165 592.168 177.255 592.919 173.482C593.669 169.709 595.521 166.244 598.241 163.524C600.961 160.804 604.427 158.952 608.199 158.201C611.972 157.451 615.883 157.836 619.436 159.308C622.99 160.78 626.028 163.273 628.165 166.471C630.302 169.669 631.443 173.43 631.443 177.276C631.443 182.435 629.393 187.381 625.746 191.029C622.099 194.676 617.152 196.725 611.994 196.725Z" fill="#86F5A6"/>
<path d="M619.667 175.358H613.912V169.602C613.912 169.094 613.71 168.606 613.35 168.246C612.99 167.886 612.502 167.684 611.993 167.684C611.484 167.684 610.996 167.886 610.637 168.246C610.277 168.606 610.075 169.094 610.075 169.602V175.358H604.319C604.067 175.357 603.817 175.407 603.584 175.503C603.351 175.599 603.139 175.74 602.96 175.919C602.782 176.097 602.64 176.308 602.543 176.541C602.447 176.774 602.397 177.024 602.397 177.276C602.397 177.529 602.447 177.778 602.543 178.011C602.64 178.244 602.782 178.456 602.96 178.634C603.139 178.812 603.351 178.954 603.584 179.05C603.817 179.146 604.067 179.195 604.319 179.195H610.075V184.95C610.075 185.459 610.277 185.947 610.637 186.307C610.996 186.667 611.484 186.869 611.993 186.869C612.502 186.869 612.99 186.667 613.35 186.307C613.71 185.947 613.912 185.459 613.912 184.95V179.195H619.667C620.176 179.195 620.664 178.993 621.024 178.633C621.384 178.273 621.586 177.785 621.586 177.276C621.586 176.768 621.384 176.28 621.024 175.92C620.664 175.56 620.176 175.358 619.667 175.358Z" fill="white"/>
<path d="M315.175 232.518H241.28C239.774 232.52 238.331 233.118 237.266 234.183C236.201 235.248 235.602 236.691 235.601 238.197V266.246H320.847V238.197C320.846 236.692 320.248 235.25 319.185 234.185C318.122 233.121 316.68 232.521 315.175 232.518Z" fill="#86F5A6"/>
<path opacity="0.5" d="M315.173 311.332H241.277C239.772 311.331 238.329 310.732 237.265 309.668C236.201 308.604 235.603 307.161 235.601 305.656V238.194C235.603 236.689 236.201 235.246 237.265 234.182C238.329 233.118 239.772 232.52 241.277 232.518H315.173C316.678 232.52 318.12 233.118 319.184 234.182C320.249 235.246 320.847 236.689 320.849 238.194V305.656C320.847 307.161 320.249 308.604 319.185 309.668C318.12 310.732 316.678 311.331 315.173 311.332Z" fill="#86F5A6"/>
<path d="M263.049 264.494C268.136 264.494 272.26 260.371 272.26 255.283C272.26 250.196 268.136 246.073 263.049 246.073C257.962 246.073 253.838 250.196 253.838 255.283C253.838 260.371 257.962 264.494 263.049 264.494Z" fill="white"/>
<path d="M299.868 278.495H256.581C255.854 278.495 255.156 278.206 254.641 277.691C254.127 277.177 253.838 276.479 253.838 275.752C253.838 275.024 254.127 274.327 254.641 273.812C255.156 273.298 255.854 273.009 256.581 273.009H299.868C300.596 273.009 301.293 273.298 301.808 273.812C302.322 274.327 302.611 275.024 302.611 275.752C302.611 276.479 302.322 277.177 301.808 277.691C301.293 278.206 300.596 278.495 299.868 278.495Z" fill="white"/>
<path d="M277.469 289.333H256.581C255.854 289.333 255.156 289.044 254.642 288.53C254.127 288.015 253.838 287.318 253.838 286.59C253.838 285.863 254.127 285.165 254.642 284.65C255.156 284.136 255.854 283.847 256.581 283.847H277.469C278.197 283.847 278.895 284.136 279.409 284.65C279.923 285.165 280.212 285.863 280.212 286.59C280.212 287.318 279.923 288.015 279.409 288.53C278.895 289.044 278.197 289.333 277.469 289.333Z" fill="white"/>
<path d="M239.737 331.132C235.89 331.132 232.13 329.991 228.932 327.854C225.733 325.717 223.24 322.679 221.768 319.126C220.296 315.572 219.911 311.661 220.662 307.888C221.412 304.116 223.264 300.65 225.984 297.93C228.704 295.21 232.17 293.358 235.942 292.608C239.715 291.857 243.626 292.242 247.179 293.714C250.733 295.186 253.771 297.679 255.908 300.878C258.045 304.076 259.186 307.836 259.186 311.683C259.186 316.841 257.136 321.788 253.489 325.435C249.842 329.083 244.895 331.132 239.737 331.132Z" fill="#86F5A6"/>
<path d="M247.41 309.764H241.655V304.009C241.655 303.5 241.453 303.012 241.093 302.652C240.733 302.292 240.245 302.09 239.736 302.09C239.228 302.09 238.74 302.292 238.38 302.652C238.02 303.012 237.818 303.5 237.818 304.009V309.764H232.062C231.81 309.764 231.56 309.813 231.327 309.909C231.094 310.005 230.882 310.147 230.703 310.325C230.525 310.503 230.383 310.715 230.287 310.948C230.19 311.181 230.14 311.431 230.14 311.683C230.14 311.935 230.19 312.185 230.287 312.418C230.383 312.651 230.525 312.862 230.703 313.041C230.882 313.219 231.094 313.36 231.327 313.456C231.56 313.552 231.81 313.602 232.062 313.601H237.818V319.357C237.818 319.866 238.02 320.354 238.38 320.713C238.74 321.073 239.228 321.275 239.736 321.275C240.245 321.275 240.733 321.073 241.093 320.713C241.453 320.354 241.655 319.866 241.655 319.357V313.601H247.41C247.919 313.601 248.407 313.399 248.767 313.039C249.127 312.68 249.329 312.192 249.329 311.683C249.329 311.174 249.127 310.686 248.767 310.326C248.407 309.966 247.919 309.764 247.41 309.764Z" fill="white"/>
<path d="M230.734 189.631H156.838C155.333 189.629 153.89 189.031 152.826 187.967C151.762 186.902 151.164 185.46 151.162 183.955V116.493C151.164 114.988 151.762 113.545 152.826 112.481C153.89 111.417 155.333 110.818 156.838 110.817H230.734C232.239 110.818 233.681 111.417 234.746 112.481C235.81 113.545 236.408 114.988 236.41 116.493V183.955C236.408 185.46 235.81 186.902 234.746 187.967C233.681 189.031 232.239 189.629 230.734 189.631Z" fill="#86F5A6"/>
<path d="M178.61 148.423C183.697 148.423 187.821 144.299 187.821 139.212C187.821 134.125 183.697 130.001 178.61 130.001C173.523 130.001 169.399 134.125 169.399 139.212C169.399 144.299 173.523 148.423 178.61 148.423Z" fill="#86F5A6"/>
<path d="M215.43 159.608H172.142C171.415 159.608 170.717 159.319 170.203 158.805C169.688 158.29 169.399 157.593 169.399 156.865C169.399 156.138 169.688 155.44 170.203 154.926C170.717 154.412 171.415 154.123 172.142 154.123H215.43C216.157 154.123 216.855 154.412 217.369 154.926C217.884 155.44 218.173 156.138 218.173 156.865C218.173 157.593 217.884 158.29 217.369 158.805C216.855 159.319 216.157 159.608 215.43 159.608Z" fill="#86F5A6"/>
<path d="M193.031 170.447H172.142C171.415 170.447 170.717 170.158 170.203 169.643C169.688 169.129 169.399 168.431 169.399 167.704C169.399 166.976 169.688 166.278 170.203 165.764C170.717 165.25 171.415 164.961 172.142 164.961H193.031C193.758 164.961 194.456 165.25 194.97 165.764C195.485 166.278 195.774 166.976 195.774 167.704C195.774 168.431 195.485 169.129 194.97 169.643C194.456 170.158 193.758 170.447 193.031 170.447Z" fill="#86F5A6"/>
<path opacity="0.5" d="M230.734 189.631H156.838C155.333 189.629 153.89 189.031 152.826 187.967C151.762 186.902 151.164 185.46 151.162 183.955V116.493C151.164 114.988 151.762 113.545 152.826 112.481C153.89 111.417 155.333 110.818 156.838 110.817H230.734C232.239 110.818 233.681 111.417 234.746 112.481C235.81 113.545 236.408 114.988 236.41 116.493V183.955C236.408 185.46 235.81 186.902 234.746 187.967C233.681 189.031 232.239 189.629 230.734 189.631Z" fill="#86F5A6"/>
<path d="M178.61 148.423C183.697 148.423 187.821 144.299 187.821 139.212C187.821 134.125 183.697 130.001 178.61 130.001C173.523 130.001 169.399 134.125 169.399 139.212C169.399 144.299 173.523 148.423 178.61 148.423Z" fill="white"/>
<path d="M215.43 159.608H172.142C171.415 159.608 170.717 159.319 170.203 158.805C169.688 158.29 169.399 157.593 169.399 156.865C169.399 156.138 169.688 155.44 170.203 154.926C170.717 154.412 171.415 154.123 172.142 154.123H215.43C216.157 154.123 216.855 154.412 217.369 154.926C217.884 155.44 218.173 156.138 218.173 156.865C218.173 157.593 217.884 158.29 217.369 158.805C216.855 159.319 216.157 159.608 215.43 159.608Z" fill="white"/>
<path d="M193.031 170.447H172.142C171.415 170.447 170.717 170.158 170.203 169.643C169.688 169.129 169.399 168.431 169.399 167.704C169.399 166.976 169.688 166.278 170.203 165.764C170.717 165.25 171.415 164.961 172.142 164.961H193.031C193.758 164.961 194.456 165.25 194.97 165.764C195.485 166.278 195.774 166.976 195.774 167.704C195.774 168.431 195.485 169.129 194.97 169.643C194.456 170.158 193.758 170.447 193.031 170.447Z" fill="white"/>
<path d="M158.363 125.373C166.524 125.373 173.141 118.757 173.141 110.595C173.141 102.434 166.524 95.8174 158.363 95.8174C150.201 95.8174 143.585 102.434 143.585 110.595C143.585 118.757 150.201 125.373 158.363 125.373Z" fill="#FF6584"/>
<path d="M198.915 420.106C198.915 420.216 198.894 420.325 198.852 420.426C198.81 420.528 198.748 420.621 198.67 420.698C198.593 420.776 198.5 420.838 198.398 420.88C198.297 420.922 198.188 420.943 198.078 420.943H0.837648C0.615555 420.943 0.402556 420.855 0.245512 420.698C0.088469 420.541 0.000244141 420.328 0.000244141 420.106C0.000244141 419.884 0.088469 419.671 0.245512 419.513C0.402556 419.356 0.615555 419.268 0.837648 419.268H198.078C198.188 419.268 198.297 419.289 198.398 419.331C198.5 419.373 198.593 419.435 198.67 419.513C198.748 419.591 198.81 419.683 198.852 419.785C198.894 419.887 198.915 419.996 198.915 420.106Z" fill="#CCCCCC"/>
<path d="M155.205 149.738C155.812 151.437 155.728 153.306 154.97 154.943C154.212 156.58 152.841 157.853 151.152 158.489C150.779 158.628 150.394 158.734 150.001 158.806L146.099 182.703L136.943 174.25L142.053 152.853C141.864 151.049 142.392 149.244 143.523 147.828C144.654 146.411 146.298 145.496 148.098 145.281C149.612 145.108 151.141 145.454 152.432 146.264C153.724 147.074 154.701 148.299 155.205 149.738Z" fill="#FFB6B6"/>
<path d="M87.6389 203.886C87.6389 203.886 94.7445 194.498 120.529 194.755L135.164 189.438L138.509 158.777L150.216 161.565L148.543 199.472L123.458 213.966L90.5677 220.655L87.6389 203.886Z" fill="#3F3D56"/>
<path d="M83.8638 184.328C92.3157 184.328 99.1674 177.476 99.1674 169.024C99.1674 160.572 92.3157 153.72 83.8638 153.72C75.4118 153.72 68.5601 160.572 68.5601 169.024C68.5601 177.476 75.4118 184.328 83.8638 184.328Z" fill="#FFB6B6"/>
<path d="M57.9619 285.06C57.9348 285.061 57.9077 285.057 57.8816 285.05C57.5991 284.971 57.3759 284.909 58.3955 276.092L59.496 269.123L58.4216 262.969L56.6145 261.162L59.5189 258.258L61.9561 251.335L57.739 245.086L52.9007 219.53C52.0689 215.12 52.7152 210.559 54.7396 206.554C56.7639 202.549 60.053 199.324 64.097 197.379L69.6968 195.743L71.7343 192.006C72.3065 190.957 73.1489 190.08 74.1743 189.466C75.1996 188.852 76.3706 188.523 77.5657 188.514L87.8204 188.438C88.855 188.43 89.8774 188.662 90.8073 189.115C91.7372 189.569 92.5494 190.232 93.1803 191.052L96.7579 195.703L111.594 200.742L109.134 253.746C109.525 254.073 109.843 254.477 110.07 254.934C110.296 255.39 110.425 255.889 110.449 256.398C110.473 256.907 110.39 257.415 110.208 257.891C110.025 258.367 109.745 258.799 109.387 259.161C109.232 259.317 109.11 259.443 109.034 259.527C108.784 259.882 109.253 262.535 109.833 264.787L110.576 268.237C110.338 268.407 110.137 268.625 109.987 268.877C109.837 269.129 109.741 269.409 109.705 269.7C109.669 269.99 109.693 270.286 109.777 270.567C109.86 270.848 110.001 271.108 110.191 271.332L111.138 272.451C111.325 273.854 110.948 275.275 110.09 276.401C109.232 277.527 107.962 278.266 106.559 278.457C93.0003 280.302 58.0328 285.06 57.9619 285.06Z" fill="#3F3D56"/>
<path d="M79.9494 183.58C79.8838 183.435 79.8184 183.29 79.7532 183.145C79.7783 183.146 79.8032 183.149 79.8283 183.15L79.9494 183.58Z" fill="#2F2E41"/>
<path d="M68.1346 154.416C68.8613 153.731 69.8057 153.322 70.8029 153.263C71.7925 153.294 72.796 154.188 72.591 155.157C74.4087 151.939 77.3019 149.463 80.7628 148.165C84.2238 146.868 88.0312 146.83 91.5168 148.06C93.9764 148.928 96.3884 150.664 96.9534 153.21C97.0084 153.879 97.2078 154.527 97.5377 155.111C97.8237 155.424 98.1947 155.645 98.6051 155.749C99.0155 155.853 99.4473 155.835 99.8474 155.697L99.8717 155.689C100.009 155.643 100.156 155.638 100.296 155.676C100.436 155.714 100.561 155.794 100.655 155.903C100.749 156.013 100.808 156.149 100.824 156.293C100.84 156.437 100.813 156.582 100.745 156.71L100.049 158.008C100.927 158.204 101.838 158.184 102.706 157.951C102.851 157.914 103.003 157.921 103.143 157.974C103.282 158.026 103.402 158.12 103.486 158.243C103.571 158.366 103.614 158.512 103.612 158.661C103.61 158.811 103.561 158.955 103.474 159.076C102.317 160.658 100.807 161.949 99.064 162.845C97.3209 163.741 95.3926 164.217 93.4328 164.237C90.6522 164.22 87.843 163.262 85.1368 163.901C84.0899 164.148 83.1117 164.627 82.2738 165.302C81.436 165.977 80.7599 166.83 80.2951 167.8C79.8303 168.771 79.5886 169.832 79.5877 170.908C79.5868 171.984 79.8268 173.046 80.29 174.017C79.4586 173.108 77.8516 173.323 77.0011 174.215C76.6095 174.692 76.3201 175.244 76.1507 175.838C75.9813 176.432 75.9355 177.054 76.0163 177.666C76.2431 179.541 76.7997 181.36 77.6603 183.041C74.3722 182.94 71.1943 181.832 68.5559 179.867C65.9175 177.902 63.9458 175.175 62.907 172.053C61.8683 168.932 61.8126 165.567 62.7475 162.413C63.6823 159.259 65.5627 156.467 68.1346 154.416Z" fill="#2F2E41"/>
<path d="M63.924 307.009C62.4608 305.954 61.471 304.366 61.1679 302.588C60.8649 300.809 61.2728 298.983 62.3038 297.503C62.5325 297.176 62.7897 296.871 63.0723 296.589L52.7454 274.688L65.079 276.465L72.9948 296.99C74.1724 298.368 74.7602 300.155 74.6312 301.963C74.5022 303.772 73.6666 305.457 72.3053 306.654C71.1558 307.655 69.7 308.236 68.1769 308.3C66.6539 308.365 65.1541 307.91 63.924 307.009Z" fill="#FFB6B6"/>
<path d="M60.7966 295.051L44.3638 258.118L44.1992 228.948L49.3792 213.192C50.082 211.055 51.2061 209.08 52.6852 207.384C54.1643 205.688 55.9684 204.306 57.9908 203.319C60.0131 202.333 62.2127 201.761 64.4596 201.639C66.7065 201.517 68.9551 201.847 71.0724 202.609L71.1865 202.65L71.2344 202.761C71.4258 203.208 75.7703 213.954 62.8835 236.062L60.29 251.189L69.3903 285.863L60.7966 295.051Z" fill="#3F3D56"/>
</g>
<defs>
<linearGradient id="paint0_linear_424_2890" x1="146.944" y1="78.3563" x2="533.466" y2="434.575" gradientUnits="userSpaceOnUse">
<stop stop-color="#B4E0DB"/>
<stop offset="0.51" stop-color="#BCEED1"/>
<stop offset="1" stop-color="#B4DFDB"/>
</linearGradient>
<clipPath id="clip0_424_2890">
<rect width="631" height="339" fill="white" transform="translate(0 82)"/>
</clipPath>
</defs>
</svg>
